sfk_cyclingleg_states
version=1
nRows=13
nColumns=53
inDegrees=yes

# SIMM Motion File Header:
name sfk_cyclingleg_states
datacolumns 53
datarows 13
otherdata 1
range 0.24074768 0.25345412
endheader
time	/jointset/bb/crank_angle/value	/jointset/bb/crank_angle/speed	/jointset/spindle/pedal_angle_r/value	/jointset/spindle/pedal_angle_r/speed	/jointset/ground_pelvis/pelvis_tilt/value	/jointset/ground_pelvis/pelvis_tilt/speed	/jointset/ground_pelvis/pelvis_list/value	/jointset/ground_pelvis/pelvis_list/speed	/jointset/ground_pelvis/pelvis_rotation/value	/jointset/ground_pelvis/pelvis_rotation/speed	/jointset/ground_pelvis/pelvis_tx/value	/jointset/ground_pelvis/pelvis_tx/speed	/jointset/ground_pelvis/pelvis_ty/value	/jointset/ground_pelvis/pelvis_ty/speed	/jointset/ground_pelvis/pelvis_tz/value	/jointset/ground_pelvis/pelvis_tz/speed	/jointset/hip_r/hip_angle_r/value	/jointset/hip_r/hip_angle_r/speed	/jointset/hip_r/hip_adduction_r/value	/jointset/hip_r/hip_adduction_r/speed	/jointset/hip_r/hip_rotation_r/value	/jointset/hip_r/hip_rotation_r/speed	/jointset/knee_r/knee_angle_r/value	/jointset/knee_r/knee_angle_r/speed	/jointset/knee_r/tib_tx_r/value	/jointset/knee_r/tib_tx_r/speed	/jointset/knee_r/tib_ty_r/value	/jointset/knee_r/tib_ty_r/speed	/jointset/tib_pat_r/pat_angle_r/value	/jointset/tib_pat_r/pat_angle_r/speed	/jointset/tib_pat_r/pat_tx_r/value	/jointset/tib_pat_r/pat_tx_r/speed	/jointset/tib_pat_r/pat_ty_r/value	/jointset/tib_pat_r/pat_ty_r/speed	/jointset/ankle_r/ankle_angle_r/value	/jointset/ankle_r/ankle_angle_r/speed	/jointset/subtalar_r/subtalar_angle_r/value	/jointset/subtalar_r/subtalar_angle_r/speed	/jointset/mtp_r/mtp_angle_r/value	/jointset/mtp_r/mtp_angle_r/speed	/forceset/bifemlh_r/activation	/forceset/bifemlh_r/fiber_length	/forceset/bifemsh_r/activation	/forceset/bifemsh_r/fiber_length	/forceset/glut_max2_r/activation	/forceset/glut_max2_r/fiber_length	/forceset/vas_int_r/activation	/forceset/vas_int_r/fiber_length	/forceset/med_gas_r/activation	/forceset/med_gas_r/fiber_length	/forceset/tib_ant_r/activation	/forceset/tib_ant_r/fiber_length
      0.24074768	   -125.72714060	   -480.13863232	    143.60955223	    519.81260815	      0.00000000	      0.00000000	      0.00000000	      0.00000000	      0.00000000	     -0.00000000	      0.00000000	      0.00000000	      0.00000000	      0.00000000	      0.00000000	      0.00000000	     52.05305897	   -196.64392984	      4.38244488	     -0.22383511	      1.07373603	     18.26295286	    -56.09035944	    215.37326129	      0.00450163	     -0.01964311	     -0.47478829	      0.06352149	     17.30099332	     -6.21671525	      0.04395737	      0.06212732	     -0.02306847	     -0.00801706	     22.33344611	     20.64751053	     -0.00000000	     -0.00000000	      0.00000000	     -0.00000000	     -0.00555417	      0.13309913	     -0.00555417	      0.16834364	     -0.00555417	      0.13968936	     -0.00555417	      0.12676098	      0.05000000	      0.10000000	      0.05000000	      0.10000000
      0.24187250	   -126.26721031	   -480.13863232	    144.19363970	    518.72523342	      0.00000000	      0.00000000	      0.00000000	      0.00000000	      0.00000000	     -0.00000000	      0.00000000	      0.00000000	      0.00000000	      0.00000000	      0.00000000	      0.00000000	     51.83238076	   -195.72987528	      4.38218815	     -0.23258976	      1.09420352	     18.12863137	    -55.84932460	    213.19251025	      0.00447948	     -0.01973226	     -0.47471728	      0.06272712	     17.29396765	     -6.27467883	      0.04402684	      0.06139244	     -0.02307745	     -0.00794587	     22.35677801	     20.83571137	     -0.00000000	     -0.00000000	      0.00000000	     -0.00000000	     -0.00569899	      0.13301084	     -0.00569899	      0.16850081	     -0.00569899	      0.13953977	     -0.00569899	      0.12658258	      0.05000000	      0.10000000	      0.05000000	      0.10000000
      0.24278296	   -126.70435653	   -480.13863232	    144.66550691	    517.81964695	      0.00000000	      0.00000000	      0.00000000	      0.00000000	      0.00000000	     -0.00000000	      0.00000000	      0.00000000	      0.00000000	      0.00000000	      0.00000000	      0.00000000	     51.65452336	   -194.96497329	      4.38197327	     -0.23938258	      1.11065788	     18.01601312	    -55.65604075	    211.38727856	      0.00446149	     -0.01979185	     -0.47466047	      0.06207502	     17.28823463	     -6.31855529	      0.04408246	      0.06078830	     -0.02308465	     -0.00788676	     22.37581337	     20.97758678	     -0.00000000	     -0.00000000	      0.00000000	     -0.00000000	     -0.00581622	      0.13293910	     -0.00581622	      0.16858977	     -0.00581622	      0.13941886	     -0.00581622	      0.12643923	      0.05000000	      0.10000000	      0.05000000	      0.10000000
      0.24365368	   -127.12242285	   -480.13863232	    145.11599785	    516.93173955	      0.00000000	      0.00000000	      0.00000000	      0.00000000	      0.00000000	     -0.00000000	      0.00000000	      0.00000000	      0.00000000	      0.00000000	      0.00000000	      0.00000000	     51.48508967	   -194.21216428	      4.38176210	     -0.24562850	      1.12629668	     17.90495684	    -55.47274566	    209.62668637	      0.00444424	     -0.01983825	     -0.47460669	      0.06144367	     17.28271564	     -6.35786900	      0.04413514	      0.06020262	     -0.02309150	     -0.00782896	     22.39413476	     21.10423557	     -0.00000000	     -0.00000000	      0.00000000	     -0.00000000	     -0.00592832	      0.13287027	     -0.00592832	      0.16871853	     -0.00592832	      0.13930341	     -0.00592832	      0.12630305	      0.05000000	      0.10000000	      0.05000000	      0.10000000
      0.24479366	   -127.66977024	   -480.13863232	    145.70461070	    515.73613615	      0.00000000	      0.00000000	      0.00000000	      0.00000000	      0.00000000	     -0.00000000	      0.00000000	      0.00000000	      0.00000000	      0.00000000	      0.00000000	      0.00000000	     51.26426865	   -193.19459379	      4.38147760	     -0.25342855	      1.14662271	     17.75446112	    -55.23511344	    207.27026857	      0.00442159	     -0.01988330	     -0.47453713	      0.06060553	     17.27544034	     -6.40527323	      0.04420333	      0.05942392	     -0.02310038	     -0.00775134	     22.41828128	     21.25627312	     -0.00000000	     -0.00000000	      0.00000000	     -0.00000000	     -0.00607509	      0.13277981	     -0.00607509	      0.16883587	     -0.00607509	      0.13915254	     -0.00607509	      0.12612571	      0.05000000	      0.10000000	      0.05000000	      0.10000000
      0.24593363	   -128.21711762	   -480.13863232	    146.29183869	    514.50194332	      0.00000000	      0.00000000	      0.00000000	     -0.00000000	      0.00000000	     -0.00000000	      0.00000000	      0.00000000	      0.00000000	      0.00000000	      0.00000000	      0.00000000	     51.04462858	   -192.14016561	      4.38118446	     -0.26079195	      1.16677380	     17.59801200	    -55.00020122	    204.85446202	      0.00439891	     -0.01991043	     -0.47446852	      0.05975415	     17.26811372	     -6.44787763	      0.04427062	      0.05863150	     -0.02310917	     -0.00767145	     22.44259198	     21.39216478	     -0.00000000	     -0.00000000	      0.00000000	     -0.00000000	     -0.00622186	      0.13268896	     -0.00622186	      0.16896690	     -0.00622186	      0.13900201	     -0.00622186	      0.12594577	      0.05000000	      0.10000000	      0.05000000	      0.10000000
      0.24673222	   -128.60054945	   -480.13863232	    146.70235923	    513.61376834	      0.00000000	      0.00000000	      0.00000000	      0.00000000	      0.00000000	     -0.00000000	      0.00000000	      0.00000000	      0.00000000	      0.00000000	      0.00000000	      0.00000000	     50.89149081	   -191.37919949	      4.38097422	     -0.26568503	      1.18078231	     17.48476681	    -54.83729551	    203.12609652	      0.00438301	     -0.01991871	     -0.47442104	      0.05914975	     17.26295364	     -6.47475419	      0.04431722	      0.05806807	     -0.02311527	     -0.00761408	     22.45971006	     21.47743369	     -0.00000000	     -0.00000000	      0.00000000	     -0.00000000	     -0.00632468	      0.13262510	     -0.00632468	      0.16906881	     -0.00632468	      0.13889680	     -0.00632468	      0.12581915	      0.05000000	      0.10000000	      0.05000000	      0.10000000
      0.24807102	   -129.24335920	   -480.13863232	    147.38896513	    512.07997705	      0.00000000	      0.00000000	      0.00000000	     -0.00000000	      0.00000000	     -0.00000000	      0.00000000	      0.00000000	      0.00000000	      0.00000000	      0.00000000	      0.00000000	     50.63614843	   -190.06152594	      4.38061330	     -0.27338794	      1.20406016	     17.28796877	    -54.56732571	    200.16067620	      0.00435634	     -0.01991266	     -0.47434254	      0.05812153	     17.25425808	     -6.51410705	      0.04439432	      0.05710786	     -0.02312540	     -0.00751526	     22.48854974	     21.60141750	     -0.00000000	     -0.00000000	      0.00000000	     -0.00000000	     -0.00649705	      0.13251763	     -0.00649705	      0.16922045	     -0.00649705	      0.13872086	     -0.00649705	      0.12560801	      0.05000000	      0.10000000	      0.05000000	      0.10000000
      0.24940982	   -129.88616896	   -480.13863232	    148.07347915	    510.48847164	      0.00000000	      0.00000000	      0.00000000	     -0.00000000	      0.00000000	     -0.00000000	      0.00000000	      0.00000000	      0.00000000	      0.00000000	      0.00000000	      0.00000000	     50.38260581	   -188.69037925	      4.38024249	     -0.28045116	      1.22706858	     17.08219698	    -54.30138386	    197.10852047	      0.00432970	     -0.01988152	     -0.47426542	      0.05707433	     17.24551478	     -6.54602551	      0.04447012	      0.05612769	     -0.02313539	     -0.00741301	     22.51753905	     21.70081175	     -0.00000000	     -0.00000000	      0.00000000	     -0.00000000	     -0.00666942	      0.13240964	     -0.00666942	      0.16936629	     -0.00666942	      0.13854555	     -0.00666942	      0.12539917	      0.05000000	      0.10000000	      0.05000000	      0.10000000
      0.25014129	   -130.23737520	   -480.13863232	    148.44655926	    509.59389352	      0.00000000	      0.00000000	      0.00000000	     -0.00000000	      0.00000000	     -0.00000000	      0.00000000	      0.00000000	      0.00000000	      0.00000000	      0.00000000	      0.00000000	     50.24486615	   -187.91826479	      4.38003602	     -0.28403463	      1.23952129	     16.96586750	    -54.15782713	    195.40359964	      0.00431517	     -0.01985385	     -0.47422389	      0.05649405	     17.24072124	     -6.56020505	      0.04451098	      0.05558358	     -0.02314079	     -0.00735565	     22.53342892	     21.74438313	     -0.00000000	     -0.00000000	      0.00000000	     -0.00000000	     -0.00676360	      0.13235042	     -0.00676360	      0.16946099	     -0.00676360	      0.13845005	     -0.00676360	      0.12528618	      0.05000000	      0.10000000	      0.05000000	      0.10000000
      0.25131190	   -130.79942832	   -480.13863232	    149.04223743	    508.12451332	      0.00000000	      0.00000000	      0.00000000	     -0.00000000	      0.00000000	     -0.00000000	      0.00000000	      0.00000000	      0.00000000	      0.00000000	      0.00000000	      0.00000000	     50.02562709	   -186.64829966	      4.37970037	     -0.28935684	      1.25926993	     16.77380156	    -53.93070945	    192.61925186	      0.00429196	     -0.01979383	     -0.47415831	      0.05555332	     17.23303084	     -6.57793957	      0.04457553	      0.05469999	     -0.02314935	     -0.00726160	     22.55891629	     21.79784357	     -0.00000000	     -0.00000000	      0.00000000	     -0.00000000	     -0.00691432	      0.13225534	     -0.00691432	      0.16958187	     -0.00691432	      0.13829767	     -0.00691432	      0.12510710	      0.05000000	      0.10000000	      0.05000000	      0.10000000
      0.25219372	   -131.22282680	   -480.13863232	    149.48981472	    506.98629965	      0.00000000	      0.00000000	      0.00000000	     -0.00000000	      0.00000000	     -0.00000000	      0.00000000	      0.00000000	      0.00000000	      0.00000000	      0.00000000	      0.00000000	     49.86146834	   -185.66336793	      4.37944356	     -0.29302565	      1.27399586	     16.62421245	    -53.76179508	    190.47569300	      0.00427453	     -0.01973579	     -0.47410963	      0.05483474	     17.22722592	     -6.58715468	      0.04462347	      0.05402380	     -0.02315572	     -0.00718887	     22.57815083	     21.82455046	     -0.00000000	     -0.00000000	      0.00000000	     -0.00000000	     -0.00702785	      0.13218346	     -0.00702785	      0.16969572	     -0.00702785	      0.13818327	     -0.00702785	      0.12497365	      0.05000000	      0.10000000	      0.05000000	      0.10000000
      0.25345412	   -131.82799298	   -480.13863232	    150.12777025	    505.31159020	      0.00000000	      0.00000000	      0.00000000	     -0.00000000	      0.00000000	     -0.00000000	      0.00000000	      0.00000000	      0.00000000	      0.00000000	      0.00000000	      0.00000000	     49.62836726	   -184.21279720	      4.37907119	     -0.29775284	      1.29481046	     16.40289199	    -53.52368590	    187.34195698	      0.00424972	     -0.01963362	     -0.47404117	      0.05379269	     17.21891840	     -6.59394189	      0.04469094	      0.05304130	     -0.02316471	     -0.00708205	     22.60567200	     21.84188056	     -0.00000000	     -0.00000000	      0.00000000	     -0.00000000	     -0.00719013	      0.13208034	     -0.00719013	      0.16982110	     -0.00719013	      0.13802038	     -0.00719013	      0.12478516	      0.05000000	      0.10000000	      0.05000000	      0.10000000
